<svg width="12" height="14" viewBox="0 0 12 14" fill="none" xmlns="http://www.w3.org/2000/svg">
<path fill-rule="evenodd" clip-rule="evenodd" d="M11.82 3.74667L11.7267 3.58C11.6063 3.37846 11.4365 3.21096 11.2333 3.09334L6.76 0.513336C6.55746 0.395836 6.32753 0.333749 6.09333 0.333336H5.9C5.6658 0.333749 5.43586 0.395836 5.23333 0.513336L0.76 3.1C0.55798 3.21684 0.390173 3.38465 0.273333 3.58667L0.18 3.75334C0.0625 3.9559 0.000413333 4.18583 0 4.42V9.58667C0.000413333 9.82087 0.0625 10.0508 0.18 10.2533L0.273333 10.42C0.393193 10.6197 0.560326 10.7868 0.76 10.9067L5.24 13.4867C5.44153 13.6066 5.67213 13.6689 5.90666 13.6667H6.09333C6.32753 13.6663 6.55746 13.6042 6.76 13.4867L11.2333 10.9C11.4373 10.7858 11.6058 10.6173 11.72 10.4133L11.82 10.2467C11.9361 10.0435 11.9981 9.814 12 9.58V4.41334C11.9996 4.17916 11.9375 3.94923 11.82 3.74667ZM5.9 1.66667H6.09333L10 3.92L6 6.22667L2 3.92L5.9 1.66667ZM6.66666 12L10.5667 9.74667L10.6667 9.58V5.07333L6.66666 7.38667V12Z" fill="white"/>
</svg>
