<svg width="37" height="37" viewBox="0 0 37 37" fill="none" xmlns="http://www.w3.org/2000/svg">
<path d="M28 37.0006C24.6926 36.9976 21.4366 36.1802 18.52 34.6206L17.62 34.1206C11.4015 30.7772 6.30338 25.679 2.96 19.4606L2.46 18.5606C0.859641 15.6274 0.0142612 12.3419 1.24351e-06 9.00054V7.66054C-0.000838756 6.59446 0.423921 5.57213 1.18 4.82053L4.56 1.44053C4.88826 1.10973 5.35162 0.950295 5.81392 1.00906C6.27622 1.06782 6.68496 1.33814 6.92 1.74054L11.42 9.46054C11.8751 10.2463 11.7437 11.2401 11.1 11.8805L7.32 15.6606C7.00608 15.971 6.93294 16.4506 7.14 16.8406L7.84 18.1606C10.3541 22.8174 14.1786 26.635 18.84 29.1406L20.16 29.8606C20.55 30.0676 21.0296 29.9944 21.34 29.6806L25.12 25.9006C25.7604 25.257 26.7542 25.1256 27.54 25.5806L35.26 30.0806C35.6624 30.3156 35.9328 30.7244 35.9914 31.1866C36.0502 31.649 35.8908 32.1124 35.56 32.4406L32.18 35.8206C31.4284 36.5766 30.406 37.0014 29.34 37.0006H28Z" fill="white"/>
</svg>
